<?xml version="1.0" encoding="UTF-8"?>
<svg id="Lager_5" data-name="Lager 5" xmlns="http://www.w3.org/2000/svg" viewBox="0 0 943 752">
  <defs>
    <style>
      .cls-1, .cls-2, .cls-3 {
        fill: none;
        stroke-width: 3px;
      }

      .cls-1, .cls-2, .cls-3, .cls-4 {
        stroke-miterlimit: 10;
      }

      .cls-1, .cls-4 {
        stroke: #e02639;
      }

      .cls-2 {
        stroke: #303033;
      }

      .cls-5 {
        fill: #efeff6;
      }

      .cls-5, .cls-6, .cls-7 {
        stroke-width: 0px;
      }

      .cls-6 {
        fill: #303033;
      }

      .cls-3 {
        stroke: #efeff6;
      }

      .cls-7, .cls-4 {
        fill: #e02639;
      }
    </style>
  </defs>
  <rect class="cls-7" width="946" height="752"/>
  <polygon class="cls-5" points="816.76 265.31 836.16 299.38 854.12 308 869.27 329.34 872.82 354.09 863.64 383.09 832.12 420.02 778.12 451.73 786.48 471.1 786.07 495.28 768.39 520.11 735.88 535.61 685.69 547.66 619.93 555.48 530.41 552.84 449.79 544.41 409.23 538.64 337.65 551.68 245.45 560.79 156.5 568.34 88.9 574.88 80.98 566.68 85.12 537.55 94.09 502.9 108.08 482.66 116.43 480.82 108.64 471.63 108.2 439.25 123.03 398.93 145.21 370.78 165.29 357.47 208.28 367.63 385.37 407.97 437.1 363.82 559.39 285.26 604.27 261.85 658.79 253.95 684.38 251.53 711.96 256.46 734.88 265.78 751.01 280.2 753.14 300.7 768.98 302.96 790.48 300.96 802.64 300.67 811.81 264.61 816.76 265.31"/>
  <g>
    <path class="cls-2" d="M853.14,329.07l-27.15,9.77,27.15-9.77Z"/>
    <path class="cls-2" d="M835.74,320.03l10.76,27.29-10.76-27.29Z"/>
  </g>
  <path class="cls-3" d="M445.5,359.5l-6.14-7.99-12.86-1.01-11.92,1.25-8.08,3.75-5,5-2.13,2.27.13,3.73c-.05.35.66,4.09,1,4l12.28-6.13,10.74-.96-9.61,7.27-5.54,4.19-2.92,5.08c-.25.44.08.97.58.95l11.85-.66,9.05-5.23,15.84-4.82,2.74-10.68Z"/>
  <g>
    <polygon class="cls-4" points="836.16 299.38 824 306.74 808.87 306.61 822.13 305.64 814.11 264.93 823.29 304.62 836.16 299.38"/>
    <polygon class="cls-4" points="758.18 449.9 737.08 443.36 715.32 438.75 687.88 432.83 661.6 429.09 642.06 428.33 634.89 432.36 638.67 437.95 634.18 437.31 624.49 435.93 615.11 434.6 608.12 439.66 609.37 442.37 607.47 444.25 600.9 443.32 591.21 441.94 562.31 442.23 545.76 444.93 543.36 447.62 545.77 452 534.12 450.35 524.69 451.02 507.73 456.69 481.99 467.17 442.13 491.8 420.5 508.93 426.86 506.8 441.7 494.77 471.53 476.79 491.33 465.47 515.93 455.84 529.5 452.72 541.52 453.42 548.45 454.41 547.04 450.16 547.6 446.2 567.11 443.93 589.32 444.06 604.17 446.17 610.39 445.04 611.09 440.08 616.61 436.83 630.47 438.8 640.37 440.21 643.62 438.65 638.38 432.86 644.16 430.14 669.92 431.28 693.54 435.65 717.1 440.52 735.69 444.68 756.06 450.61 758.18 449.9"/>
    <polygon class="cls-4" points="753.71 300.28 743.1 296.75 720.64 293.55 691.13 289.35 659.12 284.8 624.02 288.9 587.54 296.84 555.02 312.41 541.3 316.52 526.03 324.45 499.46 340.87 450.54 372.3 418.45 391.97 388.47 405.32 402.47 397.78 419.86 389.14 447.57 371.87 465.38 360.27 493.09 343 515.29 328.98 531.83 319.22 546.96 312.28 561.8 307.32 582.44 297.12 588.95 294.01 614.97 288.62 637.59 285.78 658.1 283.65 678.04 285.47 704.12 289.18 734.54 293.51 746.35 295.19 753.37 299.1 753.71 300.28"/>
    <polygon class="cls-7" points="456.96 458.56 458.13 450.34 453.41 440.88 443.51 432.4 435.02 428.17 422.2 426.34 415.79 428.46 418.19 432.84 428.09 434.25 435.87 436.37 439.27 440.89 436.73 440.96 428.52 438.35 419.75 436.1 409.57 436.67 402.07 439.64 401.57 443.22 410.42 444.87 419.47 445.15 430.79 450.8 434.04 453.79 431.11 454.88 423.9 452.34 415.8 449.67 408.87 448.69 405.14 449.67 406.89 455.48 417.08 461.98 431.79 465.08 445.79 466.06 455.54 461.39 456.96 458.56"/>
    <polygon class="cls-7" points="443.6 359.64 447 365.23 446.16 371.17 444.18 377.96 442.63 381.78 437.62 388.59 428.78 393.95 420.29 396.78 418.03 391.41 427.35 382.63 431.45 375.14 430.74 373.02 425.98 373.31 437.1 363.82 443.6 359.64"/>
    <line class="cls-1" x1="369.17" y1="528.9" x2="96.53" y2="549.7"/>
    <line class="cls-1" x1="368.03" y1="512.07" x2="104.15" y2="520.99"/>
    <line class="cls-1" x1="369.44" y1="502.17" x2="114.03" y2="494.12"/>
    <line class="cls-1" x1="369.85" y1="477.99" x2="122.5" y2="463"/>
    <line class="cls-1" x1="373.94" y1="456.35" x2="121.63" y2="433.58"/>
    <line class="cls-1" x1="372.52" y1="437.96" x2="137.31" y2="408.54"/>
    <line class="cls-1" x1="379.15" y1="419.71" x2="152.01" y2="383.36"/>
  </g>
  <g>
    <polygon class="cls-6" points="817.85 428.08 814.11 454.32 810.23 460.33 805.56 464.72 799.06 460.76 764.94 395.31 794.23 391.77 803.96 390.76 798.73 384.96 772.99 388.37 766.91 388.52 762.1 386.82 764.5 384.13 758.84 367.17 752.62 368.3 736.05 335.64 724.3 318.82 691.48 293.95 678.6 285.05 659.93 274.31 628.1 263.72 626.83 258.49 621.74 257.77 617.49 253.12 599.67 257.66 586.8 255.83 583.83 241.26 576.19 238.16 577.75 248.48 580.87 262.05 567.43 264.18 554.43 270.41 539.3 277.35 523.04 285.14 503.81 292.5 486.84 291.1 477.5 285.73 465.76 275.98 464.53 284.64 477.93 296.9 496.6 300.57 510.33 299.39 527 292.77 545.67 282.3 560.79 275.36 575.64 270.4 578.75 269.83 578.19 280.86 574.38 293.45 570 302.93 574.95 303.63 583.01 289.63 586.53 279.02 593.32 281 596.48 276.5 598.06 276.93 599.69 278.87 604.78 278.59 609.16 276.18 619.2 276.6 621.18 269.81 627.4 275.74 639.01 286.49 640.98 279.7 634.76 273.76 659.79 282.37 679.18 295.23 699.12 311.2 713.7 322.36 727 335.37 741.26 358.61 745.12 371.28 744.42 376.23 735.22 369.87 725.18 362.38 721.78 364.93 723.2 369.17 744.56 382.31 748.53 389.94 731.99 406.78 727.04 413.15 726.63 423.19 734.96 414.27 743.44 404.37 751.64 396.45 755.88 395.03 763.95 409.31 781.94 446.21 788.87 461.34 799.35 472.93 811.23 474.62 819.99 462.73 823.8 450.14 823.65 436.99 827.93 421.11 817.85 428.08"/>
    <path class="cls-6" d="M796.83,288.23l2.27,12.44-9.19.71-2.56-17.53-2.13-6.36-7.64-3.11-10.04-.42-17.96,5.53,1.84,8.34.43,11.17-1.55,3.82-3.67-2.6,1.65-11.58-3.92-.81-6.08,7.22-6.08.14,12.74,16.96,15.85,16.4v7.07s-7.07-7.07-7.07-7.07l-11.32-12.72-13.54-16.57-3.44,1.03-6.36,14.56-7.81-5.92,5.8-11.35,5.68-6.77-.43-4.1-16.41-12.44-12.33-7.49c-.21-.13-.13-.45.12-.46l9.38-.53,21.79,17.24,5.65-4.25,6.88-10.13,5.84-8.26,8.41-2.81s.05.02.04.05l-2.93,6.58-4.66,4.39-.56,3.96,9.47-2.69,14.74-4.47,14.11.49,9.34,5.37,3.96,7.63,1.7,9.33Z"/>
    <polygon class="cls-6" points="715.68 326.18 713.56 333.96 708.49 362.53 718.24 357.86 724.61 355.73 730.97 360.68 721.78 364.93 714.01 366.34 707.57 369.01 712.88 374.26 711.19 379.07 709.35 391.94 705.11 393.36 708.23 399.86 704.55 404.39 704.13 407.36 713.89 416.83 721.66 426.14 718.71 432.67 716.45 427.3 708.95 423.2 701.87 416.13 700.98 430.15 700.76 445.27 700.91 465.49 702.2 491.93 706.46 492.54 709.71 510.14 706.17 513.71 730.74 517.21 742.94 517.93 748.18 523.73 738.58 522.36 721.33 519.91 704.98 517.58 704.48 525.59 707.04 543.13 712.85 566.17 724.32 592.05 729.13 600.81 740.02 595.29 747.65 591.33 748.79 590.48 749.04 588.69 745.25 586.94 745.24 579.87 746.93 567.99 752.4 565.08 748.2 559.08 752.02 553.56 740.27 543.81 732.77 532.64 736.3 529.11 741.68 533.91 748.9 539.99 756.82 548.19 759.93 547.62 761.05 525.56 770.24 517.77 769.68 528.81 768.84 548.89 768.13 553.88 784.97 556.23 796.85 557.92 790.21 562.03 783.98 563.16 774.08 561.75 772.39 566.56 769.56 572.22 769.43 580.28 768.58 586.22 766.61 593.01 762.65 592.45 759.4 601.08 753.32 608.29 745.26 615.23 737.06 616.08 729.42 612.97 719.66 603.5 712.3 591.35 707.06 571.41 700.25 548.22 697.42 532.67 695.57 517.25 687.79 522.21 673.94 534.38 665.03 540.18 666.43 530.38 679.02 519.95 692.03 513.72 689.34 504.24 680.85 492.94 673.49 487.85 669.81 478.23 679.14 483.6 686.93 492.79 691.6 495.48 691.17 491.37 694.42 489.82 691 449.94 692.26 426.89 694.66 410.05 688.86 408.22 688.43 404.12 678.53 402.71 666.51 402.01 660.71 400.18 667.5 395.08 678.67 394.65 683.48 396.34 686.72 387.71 690.53 368.06 699.58 361.26 705.13 327.71 708.94 318.72 715.68 326.18"/>
    <path class="cls-6" d="M735.5,605.76l3.82,1.55,6.5-3.12,2.37-4.36c.11-.21-.11-.44-.32-.33l-12.37,6.25Z"/>
    <polygon class="cls-6" points="667.41 253.66 662.95 235.36 654.95 220.57 675.45 211.37 692.42 205.7 688.95 201.69 670.78 208.68 654.94 213.5 650.98 212.94 651.54 209.03 642.7 195.11 637.96 197.96 626.64 185.23 605.99 174.22 584.04 171.09 568.51 174.94 546.18 189.95 535.01 204.52 527.52 214.57 523.71 213.01 507.43 199.59 498.3 194.25 491.64 193.3 493.71 196.63 503.9 203.13 514.65 212.74 522.86 218.95 520.6 227.72 512.69 233.67 498.27 242.73 490.35 248.67 486.39 255.18 494.35 253.06 502.79 246.4 515.8 240.17 511.85 253.75 506.77 268.18 499.57 290.38 503.81 292.5 509.46 290.34 513.98 274.25 518.36 257.71 524.73 269.72 526.98 253.88 531.22 245.39 544.09 247.23 556.67 243.97 555.12 240.71 543.8 242.13 532.91 240.59 533.2 238.61 537.58 236.2 541.39 223.61 537 218.95 566.42 218.08 585.65 217.79 578.29 212.7 563.16 212.57 541.1 211.45 550.28 196.59 567.11 184.85 583.93 180.17 604.86 182.14 622.55 192.73 631.89 205.17 606.57 198.54 606.86 203.63 625.1 210.27 640.1 218.46 633.88 226.67 627.67 239.96 625.84 254.81 631.77 248.59 637.7 235.29 645.47 223.27 651.28 232.17 655.6 247.69 657.23 254.23 667.41 253.66"/>
    <polygon class="cls-6" points="506.21 299.74 499.02 329.7 497.17 342.71 504.81 343.8 508.65 347.23 506.53 355.01 506.47 362.56 500.06 365.05 518.57 376.92 532.71 383.99 533.71 391.2 522.67 383.57 511.36 377.92 501.31 370.43 493.73 366.93 492.84 387.4 492.51 408.57 495.55 432.23 502.83 455.62 512.4 477.05 517.79 488.93 523.27 489.71 544.93 475.62 555.53 472.08 562.32 474.05 552.35 478.41 541.4 486.23 528.39 492.46 532.07 495 539.15 509.14 548.19 495.28 557.81 491.59 552.58 499.94 538.17 516.07 547.93 532.61 559.11 546.32 572.27 560.32 589.96 577.98 602.69 580.8 608.77 573.59 611.49 554.45 621.63 554.21 619.5 569.18 615.84 580.66 607.79 587.59 596.61 588.02 580.49 580.68 568.32 566.82 551.76 548.31 538.03 531.2 532.51 520.32 528.41 520.74 521.07 536.87 511.6 560.78 509.34 555.4 515.83 538.15 524.73 518.2 516.95 509.01 514.96 501.66 486.11 491.49 476.42 488.61 474.22 482.73 484.12 484.14 494.59 488.66 511.14 493.03 499.96 472.25 489.47 439.45 485.2 405.55 483.78 380.06 485.64 367.01 460.59 379.79 461.7 371.94 471.33 368.18 486.32 362.23 487.58 346.25 480.08 335.09 477.44 325.62 481.91 329.29 488.71 338.33 493.64 310.75 496.6 300.57 506.21 299.74"/>
    <polygon class="cls-6" points="489.55 325.32 477.12 323.55 466.92 328.16 458.01 333.97 440.07 353.63 424.38 378.68 409.83 409.94 399.53 439.78 398.49 447.1 398.2 449.15 388.78 444.32 400.5 411.64 415.75 375.43 431.44 350.39 450.8 327.89 466.21 318.97 478.93 314.72 492.58 316.66 490.93 325.92 489.55 325.32"/>
    <polygon class="cls-6" points="485.81 465.19 484.07 461.36 472.8 464.35 457.96 476.38 454.7 470.86 447.23 473.65 445.93 468.61 436.76 464 429.63 458.17 426.47 462.53 423.02 459.29 418.62 440.48 413.11 443.74 415.66 454.2 395.95 447.99 375.63 437.39 351.72 427.93 335.17 423.56 315.09 415.65 285.95 407.47 262.75 400.12 281.83 386.68 278.44 382.16 269.95 384.99 254.12 396.88 251.01 390.37 244.64 392.5 242.38 387.13 233.47 385.86 227.24 379.92 218.34 385.73 215.78 361.12 209.13 365.22 211.83 381.77 174.63 373.45 149.03 368.8 123.57 370.22 107.6 376.03 94.59 389.33 89 399 89.52 410.83 93 418 99 425 111 431 114 423 106 418 100 412 97.43 404.89 102.09 393.43 116.79 382.39 135.74 377.01 155.82 377.84 193.16 385.17 209.43 391.53 213.17 401.15 220.13 402.14 228.53 406.37 235.04 410.32 240.56 414.14 236.74 426.73 239.3 437.19 245.94 426.01 249.04 411.3 251.3 409.61 257.36 407.44 293.73 416.65 316.79 424.98 338.01 432.04 360.07 440.23 382.85 450.54 394.16 456.19 414.25 464.1 414.11 472.16 420.06 480.08 425.93 484.2 434.64 485.44 441.7 491.24 444.52 492.72 442.71 505.43 444.12 516.83 452.03 496.75 472.22 520.83 487.69 544.24 494.21 562.34 496.49 573.78 493.94 578.46 479.92 556.27 474.98 562.64 482.48 573.8 490.12 583.98 489.42 596 472.88 598.7 459.59 606.91 453.51 614.13 465.11 610.72 477.12 604.35 485.47 602.51 478.54 615.67 467.24 624.16 451.68 627 437.39 620.92 425.51 612.16 417.87 601.98 410.6 591.96 429.88 581.47 426.34 577.94 414.46 583.32 407.82 587.42 404.98 571.87 403.28 569.61 414 568.05 427.04 565.92 441.4 565.94 439.22 561.75 432.83 560.68 427.74 560.97 414.84 562.16 404.98 564.8 397.2 562.68 390.82 550.66 386.85 528.89 385 506.4 386.26 483.35 394.02 457.18 386.53 453.09 383.28 461.71 378.76 479.25 375.66 501.03 376.81 521.4 381.77 543.32 386.45 560.14 379.28 557.1 362.82 541.63 359 540.08 360.98 547.43 375.13 561.56 387.87 571.45 385.89 578.24 388.87 592.81 375.16 603.99 363.48 614.45 361.03 625.21 372.62 614.74 388.73 600.87 394.53 595.63 395.24 597.75 402.45 596.76 412.78 609.34 423.96 623.05 438.96 631.25 454.37 636.47 466.96 633.21 477.7 628.68 486.18 618.77 495.37 603.92 507.67 609.71 518.42 612.25 538.23 622.14 535.54 612.66 527.76 610.55 514.18 606.59 503.99 600.1 506.53 596.42 507.09 578.31 504.26 576.9 503.83 565.73 494.34 540.14 483.55 520.93 471.27 503.52 459.1 489.67 457.4 487.41 461.48 484.09 471.96 477.36 485.81 465.19"/>
    <polygon class="cls-6" points="383.95 407.27 375.29 406.03 375.45 391.92 368.66 379.84 359.33 374.47 349.71 378.15 342.6 386.74 334.87 397.25 324.56 405.89 315.23 414.66 306.01 413.1 319.32 400.09 330.06 388.49 342.6 372.09 355.5 365.85 366.53 366.41 376.44 374.89 382.67 387.89 383.95 407.27"/>
    <polygon class="cls-6" points="308.13 421.85 294.82 434.44 289.22 441.26 292.62 441.75 291.78 458.8 287.39 461.2 301.2 470.55 319.54 476.63 324.46 484.66 314.98 480.28 297.26 474.62 282.73 465.59 278.07 477.05 273.41 488.51 269.6 501.1 268.33 517.08 271.88 541.82 279.39 542.89 281.79 550.3 280.09 555.11 280.81 564.3 285.63 573.02 291.84 571.93 296.36 554.4 304.56 553.54 302.45 568.39 297.79 579.85 304.17 584.69 306.42 590.17 295.1 584.52 288.03 584.52 279.68 579.3 275.58 572.65 268.22 567.56 232.7 579.68 238.24 572.39 262.7 563.75 262.41 551.59 256.75 541.69 250.24 530.66 251.09 524.72 259.58 536.03 264.81 541.83 259.43 522.88 260.83 505.91 265.91 484.41 271.56 466.02 267.6 465.46 260.1 468.43 250.35 473.11 240.73 476.79 246.24 466.46 255.72 463.77 266.46 459.24 273.67 458.24 275.22 447.35 268.57 437.32 260.93 427.14 262.2 418.23 267.86 428.12 276.92 442.54 279.46 438.86 282.71 437.31 292.32 426.55 301.37 419.76 308.13 421.85"/>
  </g>
</svg>